<svg xmlns="http://www.w3.org/2000/svg" viewBox="0 0 283.09917 290.69173"><defs><style>.cls-1{fill:none;isolation:isolate;}.cls-2{fill:#fff;}.cls-3{fill:#feffff;}</style></defs><title>logoIcon</title><g id="Layer_2" data-name="Layer 2"><g id="Layer_1-2" data-name="Layer 1"><path class="cls-1" d="M0,0" transform="translate(-80.25846 -35.89798)"/><path class="cls-2" d="M221.6,188.7c7.8,13.7,15.3,26.9,22.8,40.1,6.7,11.8,13.6,23.5,20.4,35.3,7.7,13.4,15.3,26.9,23,40.4,1.8,3.3,3.6,6.6,5.5,9.8.7,1.2,1,1.9-.5,2.8-5.2,3.1-10.3,6.2-15.7,9-1.6.8-2.4.7-3.3-.9-6.2-11.2-12.4-22.4-18.6-33.5-2.6-4.6-5.3-9.2-7.9-13.8-5.9-10.9-12.1-21.7-18.3-32.4-4.2-7.1-10.1-7.1-14.2,0-11.3,19.9-22.4,39.9-33.6,59.8-3.5,6.2-6.9,12.4-10.1,18.7-1.5,2.9-2.8,3.1-5.5,1.5-4.4-2.5-9.1-4.6-13.5-7.4-1.7-1.1-1.6-1.7-.8-3.3,3.8-6.5,7.4-13,11.1-19.6,10.2-18.4,20.5-36.8,30.7-55.2,7-12.5,13.8-25.1,20.8-37.7C216.4,197.9,218.3,193.2,221.6,188.7Z" transform="translate(-80.25846 -35.89798)"/><path class="cls-2" d="M209.7,165.3C184.4,212,159.3,258.4,134,305.1c-5.1-5.3-10.7-9.5-15.1-15a2.206,2.206,0,0,1-.3-3c5.4-9.7,10.7-19.4,16-29.2,10.5-19.3,21.1-38.5,31.5-57.8,4.1-7.5.9-12.4-8-12.5-24.4,0-48.7-.1-73.1.1-3.7,0-5-.8-4.7-4.6.4-5.2.2-10.4.1-15.6,0-2,.4-2.7,2.5-2.7,41.8.1,83.6,0,125.4.1A5.088,5.088,0,0,1,209.7,165.3Z" transform="translate(-80.25846 -35.89798)"/><path class="cls-2" d="M232.6,164.8h3.8c40.9,0,81.8.1,122.8-.1,3.6,0,4.4,1,4.1,4.3a116.91968,116.91968,0,0,0,0,14.5c.2,2.9-.6,3.7-3.6,3.6-24.2-.1-48.5-.1-72.7-.1a15.78471,15.78471,0,0,0-5.3.7c-6.3,2-7.6,7-4.7,12.4,6.1,11.5,12.6,22.8,18.9,34.2,9.6,17.5,19.2,35.1,28.8,52.6.7,1.2.8,1.9-.2,3-4,4.5-8.3,8.5-12.6,12.7-1.8,1.7-2.2,1.2-3.2-.5-7.7-13.9-15.4-27.7-23.1-41.6-9-16.1-18.1-32.2-27.1-48.3-7.3-13-14.4-25.9-21.6-38.9C235.5,170.6,234.2,167.9,232.6,164.8Z" transform="translate(-80.25846 -35.89798)"/><path class="cls-2" d="M252.4,67.8c0,18.1-13.1,32-30,32.2-17.5.2-30.4-14.4-30.5-32s12.8-32.3,30.3-32.1C239.4,36,252.4,49.7,252.4,67.8Z" transform="translate(-80.25846 -35.89798)"/><path class="cls-2" d="M262.3,138.7c0-8,.1-16.2-.1-24.3-.1-2.8.7-3.6,3.4-3.4,3.9.2,7.8.1,11.7,0,1.7,0,2.3.5,2.3,2.2-.1,12.8-.1,25.5,0,38.3,0,1.7-.5,2.3-2.2,2.3-6.8-.1-13.5-.1-20.3,0-2.1,0-2.9-1.6-3.9-2.8-6.5-7.9-12.9-15.8-19.3-23.7-.4-.5-.8-.9-1.8-2,0,8.9-.1,17,.1,25.1.1,2.7-.7,3.6-3.4,3.4-3.9-.2-7.8-.1-11.7,0-1.7,0-2.3-.5-2.2-2.2.1-12.8.1-25.5,0-38.3,0-2,.9-2.3,2.6-2.3,6.1.1,12.2.1,18.4,0,3.4-.1,4.6,2.8,6.1,4.8,1.3,1.7,2.7,3.4,4.1,5.1l14.4,16.8C260.8,138.2,260.9,139.2,262.3,138.7Z" transform="translate(-80.25846 -35.89798)"/><path class="cls-2" d="M103.1,139.7c1.4,0,2.9.1,4.3,0,2.3-.1,4.6-.5,4.9,3,.2,1.8,1.8,2.7,3.6,3.1a32.29447,32.29447,0,0,0,12,.2c1.9-.4,3.6-1.4,3.8-3.3.3-2.1-1.8-2.6-3.4-3.1-6.7-2.1-13.8-2.3-20.6-4.3-4.2-1.3-8.9-1.6-11.3-6.5-3.1-6.2-1.1-12.7,5.4-15.3,7.4-3,15.2-3.2,23-3,5.6.1,11.1.6,16.5,2.6,3.9,1.4,5.9,4.4,7,8.1.5,1.6.3,3-2.1,2.9-4-.2-8.1,0-12.1-.1a2.397,2.397,0,0,1-2.3-.8c-3-3.8-12-5.3-16.3-2.8-.8.5-1.6.9-1.6,2s1,1.4,1.8,1.8a36.21078,36.21078,0,0,0,9.8,2.5c6.3.9,12.6,2,18.4,5.1,4,2.1,6.8,4.8,6.8,9.5,0,5.1-3,8.1-7.4,9.9-6.2,2.6-12.8,3.3-19.4,3.5-7.5.3-15.1-.1-22.3-2.8-4.8-1.8-7.1-5.2-7.5-10.3-.1-1.6.4-1.8,1.6-1.8C98.1,139.7,100.6,139.7,103.1,139.7Z" transform="translate(-80.25846 -35.89798)"/><path class="cls-2" d="M182.4,153.8c-7.2,0-14.3-.1-21.5.1-2.5.1-3.1-.7-3-3.1.1-12.2.1-24.5,0-36.7,0-2.5.7-3.1,3.1-3,14.1.1,28.1.1,42.2,0,2.7,0,3.2.9,3.2,3.3-.1,6.2,0,6.3-6.3,6.3-7,0-14.1.1-21.1-.1-2.3,0-2.9.7-2.6,2.9.2,1.8-.8,3.8,2.6,3.7,7.3-.3,14.6,0,21.9-.1,2.4,0,3.4.4,3.3,3.1-.2,6.3,0,6.3-6.4,6.3-6.1,0-12.2.1-18.4-.1-2.4-.1-3.3.3-3.1,3.1.4,5.3.1,5.3,5.5,5.3,7.4,0,14.8.1,22.3-.1,2.5-.1,3.7.6,3.2,3.2a6.05376,6.05376,0,0,0,0,1.9c.5,3-.5,4.1-3.7,3.9C196.4,153.6,189.4,153.8,182.4,153.8Z" transform="translate(-80.25846 -35.89798)"/><path class="cls-2" d="M355.1,153.8c-6.5,0-12.4-.1-18.3,0-2.5.1-3.1-2-3.6-3.5-1.3-3.4-3.4-4.2-6.9-4.1-6.2.3-12.5.3-18.8,0-3.3-.1-5.5.7-6.7,3.8-1.1,2.8-3,4-6.3,3.7-4.4-.4-8.8-.1-13.9-.1,4-6.2,7.8-12,11.6-17.8,4.5-6.9,9-13.9,13.4-20.9,1.7-2.7,3.4-4.6,7-4.1a42.75074,42.75074,0,0,0,11.3,0c4-.5,5.8,1.5,7.6,4.5,3.7,6.5,7.7,12.9,11.6,19.2C346.9,141,350.9,147.2,355.1,153.8Zm-46.4-17.2h17.2c-3.2-4.9-5-10.2-8.6-15C314.3,126.8,311.5,131.6,308.7,136.6Z" transform="translate(-80.25846 -35.89798)"/><path class="cls-3" d="M308.7,136.6c2.9-5,5.7-9.8,8.6-15,3.6,4.8,5.3,10.1,8.6,15Z" transform="translate(-80.25846 -35.89798)"/></g></g></svg>