<svg xmlns="http://www.w3.org/2000/svg" viewBox="0 0 49.95167 49.84461"><defs><style>.cls-1{fill:none;isolation:isolate;}.cls-2{fill:#fff;}.cls-3{fill:#feffff;}</style></defs><title>logocon</title><g id="Layer_2" data-name="Layer 2"><g id="Layer_1-2" data-name="Layer 1"><path class="cls-1" d="M0,0" transform="translate(-14.16127 -6.15539)"/><path class="cls-2" d="M39.10039,32.35619c1.37628,2.34912,2.69962,4.61251,4.023,6.8759,1.18219,2.02333,2.39966,4.02952,3.5995,6.05285,1.35863,2.29768,2.69962,4.61251,4.05825,6.92735.3176.56585.63521,1.1317.97045,1.68039.12351.20576.17645.32579-.08822.48011-.91752.53155-1.81739,1.06311-2.7702,1.54322-.28231.13717-.42347.12-.58227-.15432-1.094-1.92045-2.18793-3.8409-3.28189-5.74421-.45876-.78876-.93516-1.57752-1.39392-2.36627-1.041-1.869-2.135-3.72088-3.229-5.55559-.74107-1.21743-1.7821-1.21743-2.50553,0-1.99384,3.41223-3.95239,6.84161-5.92858,10.25384-.61756,1.06311-1.21748,2.12621-1.7821,3.20647-.26467.49726-.494.53155-.97045.2572-.77636-.42867-1.60566-.78876-2.382-1.26887-.3-.18862-.28231-.2915-.14116-.56585.67049-1.11455,1.3057-2.2291,1.95855-3.36079,1.79975-3.155,3.61714-6.31006,5.41689-9.46509,1.23512-2.14336,2.435-4.30387,3.67007-6.46438A21.4319,21.4319,0,0,1,39.10039,32.35619Z" transform="translate(-14.16127 -6.15539)"/><path class="cls-2" d="M37.00069,28.34382c-4.46408,8.0076-8.89287,15.96376-13.35695,23.97136-.89987-.90878-1.888-1.629-2.66433-2.572a.37072.37072,0,0,1-.05293-.51441c.95281-1.66325,1.888-3.3265,2.82313-5.0069,1.85268-3.30935,3.723-6.60156,5.558-9.91091.72343-1.286.1588-2.12621-1.41157-2.14336-4.30528,0-8.59291-.01715-12.89819.01715-.65285,0-.88223-.13718-.82929-.78876.07058-.89164.03529-1.78328.01764-2.67492,0-.34294.07058-.463.44111-.463,7.37544.01715,14.75087,0,22.12631.01715A.918.918,0,0,1,37.00069,28.34382Z" transform="translate(-14.16127 -6.15539)"/><path class="cls-2" d="M41.0413,28.25809h.67049c7.21664,0,14.43327.01715,21.66755-.01715.63521,0,.77636.17147.72343.73732a19.48372,19.48372,0,0,0,0,2.4863c.03529.49726-.10587.63443-.63521.61729-4.27-.01715-8.55762-.01715-12.82761-.01715a2.86076,2.86076,0,0,0-.93516.12,1.33012,1.33012,0,0,0-.8293,2.12621c1.07632,1.97189,2.22322,3.90949,3.33482,5.86424,1.69388,3.00071,3.38776,6.01856,5.08164,9.01927.12351.20576.14115.32579-.03529.51441-.70578.77161-1.4645,1.45749-2.22322,2.17766-.3176.2915-.38818.20576-.56463-.08573-1.35863-2.38342-2.71726-4.74969-4.0759-7.13311-1.588-2.76065-3.19367-5.5213-4.78168-8.282-1.28806-2.2291-2.54082-4.441-3.81123-6.67014C41.553,29.25261,41.32361,28.78964,41.0413,28.25809Z" transform="translate(-14.16127 -6.15539)"/><path class="cls-2" d="M44.53492,11.6256a5.34,5.34,0,1,1-10.675.03429,5.33955,5.33955,0,1,1,10.675-.03429Z" transform="translate(-14.16127 -6.15539)"/><path class="cls-2" d="M46.28174,23.78274c0-1.37175.01765-2.7778-.01765-4.1667-.01765-.48011.12351-.61729.59991-.583.68814.03429,1.37628.01715,2.06442,0,.3,0,.40582.08573.40582.37723-.01765,2.1948-.01765,4.37246,0,6.56726,0,.2915-.08822.39438-.38818.39438-1.19983-.01715-2.382-.01715-3.58185,0-.37054,0-.51169-.27435-.68814-.48011-1.1469-1.3546-2.27615-2.70921-3.4054-4.06381-.07058-.08573-.14116-.15432-.3176-.34294,0,1.52607-.01765,2.915.01765,4.30387.01765.463-.12351.61729-.59991.583-.68814-.03429-1.37628-.01715-2.06442,0-.3,0-.40583-.08573-.38818-.37723.01765-2.1948.01765-4.37246,0-6.56726,0-.34294.1588-.39438.45876-.39438,1.07632.01715,2.15264.01715,3.2466,0,.59991-.01715.81165.48011,1.07632.82305.22938.2915.4764.583.72343.87449l2.54082,2.88068C46.01707,23.697,46.03471,23.86848,46.28174,23.78274Z" transform="translate(-14.16127 -6.15539)"/><path class="cls-2" d="M18.19156,23.95421c.247,0,.51169.01715.75872,0,.40583-.01715.81165-.08573.86458.51441.03529.30864.3176.463.6352.53155a5.86064,5.86064,0,0,0,2.11735.03429c.33525-.06859.6352-.24006.67049-.56585.05293-.36009-.3176-.44582-.59991-.53155-1.18219-.36009-2.435-.39438-3.63478-.73732-.74107-.22291-1.57037-.27435-1.99384-1.11455a1.77843,1.77843,0,0,1,.95281-2.62348,10.18654,10.18654,0,0,1,4.05825-.51441,8.89378,8.89378,0,0,1,2.91136.44582,1.94224,1.94224,0,0,1,1.23512,1.3889c.08822.27435.05293.51441-.37054.49726-.70578-.03429-1.42921,0-2.135-.01715a.43017.43017,0,0,1-.40583-.13718,2.77531,2.77531,0,0,0-2.87607-.48011c-.14116.08573-.28231.15432-.28231.34294s.17645.24006.3176.30864a6.53956,6.53956,0,0,0,1.72917.42867,9.805,9.805,0,0,1,3.2466.87449,1.794,1.794,0,0,1,1.19983,1.629,1.7719,1.7719,0,0,1-1.3057,1.69754,9.7202,9.7202,0,0,1-3.423.60014,10.227,10.227,0,0,1-3.93474-.48011A1.87015,1.87015,0,0,1,16.60355,24.28c-.01764-.27435.07058-.30864.28231-.30864C17.30933,23.95421,17.75045,23.95421,18.19156,23.95421Z" transform="translate(-14.16127 -6.15539)"/><path class="cls-2" d="M32.18372,26.37193c-1.27041,0-2.52318-.01715-3.79359.01715-.44111.01715-.547-.12-.52934-.53155.01765-2.09192.01765-4.201,0-6.29291,0-.42867.12351-.53155.547-.51441,2.48789.01715,4.95813.01715,7.446,0,.4764,0,.56463.15432.56463.56585-.01765,1.06311,0,1.08026-1.11161,1.08026-1.23512,0-2.48789.01715-3.723-.01715-.40583,0-.51169.12-.45876.49726.03529.30864-.14116.65158.45876.63443,1.28806-.05144,2.57611,0,3.86416-.01715.42347,0,.59991.06859.58227.53155-.03529,1.08026,0,1.08026-1.12925,1.08026-1.07632,0-2.15264.01715-3.2466-.01715-.42347-.01715-.58227.05144-.547.53155.07058.90879.01765.90879.97045.90879,1.3057,0,2.6114.01715,3.93474-.01715.44111-.01715.65285.10288.56463.5487a1.00912,1.00912,0,0,0,0,.32579c.08822.51441-.08822.703-.65285.66873C34.654,26.33763,33.41884,26.37193,32.18372,26.37193Z" transform="translate(-14.16127 -6.15539)"/><path class="cls-2" d="M62.65591,26.37193c-1.1469,0-2.18793-.01715-3.229,0-.44111.01715-.547-.34294-.63521-.60014-.22938-.583-.59991-.72017-1.21748-.703-1.094.05144-2.20557.05144-3.31718,0-.58227-.01715-.97045.12-1.18219.65158a.95634.95634,0,0,1-1.11161.63443c-.77636-.06859-1.55272-.01715-2.4526-.01715.70578-1.06311,1.37628-2.05763,2.04677-3.05215.794-1.18313,1.588-2.38342,2.36437-3.5837.3-.463.59991-.78876,1.23512-.703a7.76024,7.76024,0,0,0,1.99384,0,1.25138,1.25138,0,0,1,1.341.77161c.65285,1.11455,1.35863,2.21195,2.04677,3.2922C61.20905,24.17712,61.91484,25.24023,62.65591,26.37193Zm-8.18708-2.94927H57.5037c-.56463-.8402-.88223-1.749-1.51744-2.572C55.45692,21.74227,54.96287,22.56532,54.46883,23.42266Z" transform="translate(-14.16127 -6.15539)"/><path class="cls-3" d="M54.46883,23.42266c.51169-.85734,1.00574-1.6804,1.51744-2.572.63521.82305.93516,1.73184,1.51744,2.572Z" transform="translate(-14.16127 -6.15539)"/></g></g></svg>