<svg xmlns="http://www.w3.org/2000/svg" viewBox="0 0 282.93546 290.74143"><defs><style>.cls-1{fill:#152014;}.cls-2{fill:#142113;}.cls-3{fill:#fdfdfd;}</style></defs><title>logoT</title><g id="Layer_2" data-name="Layer 2"><g id="Layer_1-2" data-name="Layer 1"><path class="cls-1" d="M141.18464,152.84663c7.7663,13.67027,15.25417,26.92661,22.81709,40.14,6.74861,11.79068,13.61781,23.51233,20.36513,35.30372q11.53671,20.16113,22.95078,40.39238c1.8489,3.26,3.59976,6.57686,5.50482,9.80313.70518,1.19424.97126,1.94764-.46421,2.82147-5.15969,3.141-10.33107,6.2449-15.742,8.95185-1.61809.80951-2.42261.66573-3.30366-.9374-6.15389-11.19736-12.38428-22.35272-18.58058-33.52681-2.5716-4.6375-5.34257-9.15466-7.86576-13.82906-5.89031-10.91236-12.09827-21.6567-18.33793-32.37577-4.15788-7.14279-10.12291-7.14423-14.159-.01189q-16.89647,29.85846-33.60114,59.82541c-3.455,6.17678-6.90034,12.36566-10.09738,18.677-1.46388,2.88985-2.80963,3.06192-5.54567,1.4987-4.43559-2.53422-9.10328-4.648-13.45286-7.38315-1.70079-1.06948-1.64782-1.74469-.75654-3.28253,3.75969-6.48716,7.40779-13.03953,11.0547-19.5914q15.36818-27.60984,30.69788-55.24111c6.95317-12.544,13.8309-25.12987,20.79784-37.66619C135.90912,162.0192,137.863,157.34106,141.18464,152.84663Z"/><path class="cls-1" d="M129.305,129.47417c-25.27027,46.69523-50.37165,93.07838-75.6526,139.79338-5.067-5.34794-10.65742-9.54455-15.09532-14.96676a2.20775,2.20775,0,0,1-.25-2.98557q8.03156-14.5611,16.00068-29.15666Q70.08294,193.27144,85.813,164.35983c4.06236-7.5.86671-12.43759-8.01521-12.45231-24.35953-.04041-48.71985-.10356-73.078.08115-3.7293.02828-4.95937-.78662-4.68232-4.63649.373-5.18376.17146-10.4164.05107-15.62423-.04519-1.95476.37143-2.74834,2.54379-2.74533q62.72258.087,125.44535.05209A5.98173,5.98173,0,0,1,129.305,129.47417Z"/><path class="cls-1" d="M152.15841,128.90817c1.56285,0,2.70294,0,3.84305,0,40.91844.00056,81.83709.05593,122.755-.09463,3.56107-.0131,4.35684.96489,4.14825,4.29459a121.9564,121.9564,0,0,0-.00587,14.45584c.16338,2.89969-.56887,3.65752-3.55835,3.64-24.23749-.14248-48.47615-.07909-72.71447-.084a16.84758,16.84758,0,0,0-5.34094.70743c-6.25743,2.03082-7.57395,6.97-4.69872,12.42013,6.08176,11.52833,12.64446,22.80191,18.92471,34.22678,9.63933,17.53559,19.18888,35.12053,28.8442,52.64727.66475,1.20663.81767,1.86933-.1808,2.99063-3.96688,4.45491-8.34809,8.47881-12.584,12.65828-1.76538,1.7418-2.22071,1.23088-3.184-.51257q-11.50692-20.827-23.13068-41.58936c-9.016-16.104-18.10852-32.16509-27.121-48.271q-10.87587-19.43587-21.62989-38.93986C155.04677,134.78323,153.73885,132.01476,152.15841,128.90817Z"/><path class="cls-2" d="M171.95783,31.942c.0117,18.08836-13.05168,31.96376-29.9534,32.15282-17.50948.19584-30.417-14.36128-30.515-31.97608C111.39121,14.47321,124.3037-.162,141.82987.00135,158.94014.16087,171.94613,13.82727,171.95783,31.942Z"/><path class="cls-1" d="M181.90434,102.88437c0-8.04075.1217-16.17918-.06767-24.31036-.06413-2.75424.7148-3.581,3.446-3.41369,3.89084.23841,7.80852.12128,11.71194.03342,1.67287-.03765,2.27485.4957,2.267,2.2276q-.0861,19.13617-.00019,38.27286c.007,1.68449-.54443,2.30253-2.23969,2.288-6.76885-.05814-13.53916-.07132-20.30756.01113-2.10526.02563-2.90632-1.58-3.91253-2.80037-6.49055-7.87214-12.88868-15.82045-19.32189-23.7399-.38068-.46863-.80258-.90379-1.80139-2.02166,0,8.91578-.116,17.03026.06484,25.13812.06079,2.72565-.67672,3.617-3.43987,3.44554-3.89043-.24146-7.80877-.12907-11.71166-.02952-1.698.04331-2.25557-.52834-2.24849-2.22821q.07955-19.1362-.01284-38.27267c-.01319-2.043.86314-2.31379,2.57042-2.29337,6.11762.07318,12.2389.12915,18.35424-.00964,3.44628-.07822,4.5518,2.8365,6.10566,4.77234,1.34941,1.68113,2.68573,3.43032,4.09424,5.08749q7.15814,8.42192,14.4255,16.75067C180.321,102.29863,180.49984,103.35155,181.90434,102.88437Z"/><path class="cls-1" d="M22.634,103.86371c1.43351-.00286,2.87059.06175,4.2997-.01751,2.33479-.12947,4.57768-.47024,4.94149,2.95982.19442,1.83308,1.83163,2.7346,3.59933,3.07465A31.67817,31.67817,0,0,0,47.489,110.04c1.92281-.36626,3.58712-1.43267,3.81924-3.29869.259-2.08223-1.78206-2.57021-3.38623-3.08417-6.70426-2.148-13.83836-2.2693-20.55786-4.27462-4.20848-1.25594-8.86729-1.61525-11.29412-6.46268-3.12811-6.24815-1.1297-12.65123,5.41226-15.29393,7.38962-2.98512,15.21724-3.208,23.01707-3.03232,5.55982.12523,11.11895.57994,16.45173,2.55228,3.90683,1.445,5.93452,4.35389,6.97352,8.10958.4529,1.6371.3445,3.01829-2.14865,2.90641-4.0316-.18093-8.07761-.02722-12.11731-.05214a2.4095,2.4095,0,0,1-2.346-.8382c-3.04053-3.83876-12.03676-5.28517-16.30907-2.8386-.83222.47657-1.594.93614-1.55286,2.01582.04337,1.13847,1.04419,1.44131,1.824,1.80442a34.97239,34.97239,0,0,0,9.771,2.45821c6.32517.94475,12.57741,2.01959,18.35835,5.0672,3.9659,2.09076,6.75708,4.75662,6.77414,9.531.01835,5.13667-2.98745,8.066-7.35084,9.92439-6.19006,2.63638-12.79171,3.31-19.397,3.54513-7.54585.26855-15.063-.13513-22.27591-2.83033-4.80076-1.79388-7.08207-5.231-7.53758-10.267-.14591-1.61319.40646-1.80273,1.58906-1.8103C17.68184,103.85555,20.158,103.86659,22.634,103.86371Z"/><path class="cls-1" d="M101.91779,117.96349c-7.163-.00074-14.32826-.10436-21.48763.05626-2.459.05517-3.054-.71709-3.031-3.09863q.17677-18.36155-.00413-36.72536c-.02569-2.45179.69249-3.05539,3.07527-3.03712,14.06464.10787,28.13131.12892,42.19533-.01377,2.7051-.02745,3.19519.8736,3.15065,3.33591-.11306,6.24953.0092,6.2511-6.3416,6.25113-7.03274,0-14.06752.09769-21.097-.05245-2.32528-.04967-2.89648.74731-2.62136,2.87846.22682,1.75707-.81763,3.83545,2.62043,3.70733,7.28305-.27143,14.58493.00586,21.87562-.12907,2.403-.04447,3.39942.376,3.33149,3.13469-.15537,6.3091.01918,6.3135-6.37843,6.3132-6.12108-.00029-12.2451.109-18.36178-.05543-2.434-.06545-3.33548.31284-3.147,3.10592.359,5.32009.12866,5.33575,5.54845,5.33558,7.42343-.00023,14.84905.10107,22.26912-.05707,2.538-.0541,3.67586.61016,3.22567,3.24711a6.16246,6.16246,0,0,0-.00116,1.94856c.45775,2.95083-.4959,4.064-3.72589,3.9392C115.99049,117.77671,108.95052,117.96424,101.91779,117.96349Z"/><path class="cls-1" d="M274.63217,117.96123c-6.46418,0-12.397-.08752-18.32514.04093-2.54845.05523-3.07311-2.03145-3.62592-3.47171-1.296-3.3766-3.42254-4.23193-6.87165-4.06892-6.24275.295-12.51756.27494-18.76274.00754-3.2712-.14006-5.45957.67846-6.67684,3.82534-1.09271,2.82477-3.02626,4.01532-6.28528,3.74794-4.37806-.3592-8.80778-.089-13.87794-.089,4.04228-6.22933,7.82349-12.02929,11.5768-17.84728,4.47895-6.94284,8.99661-13.862,13.36757-20.8725,1.68015-2.69476,3.35865-4.56148,7.04393-4.11284a47.59144,47.59144,0,0,0,11.31659.00439c3.97647-.47667,5.81821,1.522,7.562,4.54063,3.742,6.47765,7.65484,12.85826,11.58035,19.22769C266.49682,105.12895,270.44234,111.3013,274.63217,117.96123Zm-46.39946-17.23364h17.20065c-3.23981-4.88634-4.95674-10.19739-8.57712-14.973Z"/><path class="cls-3" d="M228.23271,100.72759l8.62352-14.973c3.62039,4.77561,5.33731,10.08666,8.57712,14.973Z"/></g></g></svg>